<?xml version="1.0" encoding="UTF-8"?>
<svg width="453" height="333" viewBox="0 0 453 333" xmlns="http://www.w3.org/2000/svg">
  <path
      d="M345.8,10.87C349.16,10.87 352.52,10.87 355.88,10.86C365.84,10.86 375.78,10.93 385.72,11.44C386.47,11.48 387.23,11.51 388,11.55C404.34,12.5 418.76,19.04 430,31C445.03,47.99 445.59,67.98 445.45,89.48C445.45,92.03 445.45,94.59 445.46,97.14C445.46,102.61 445.45,108.08 445.42,113.55C445.39,121.46 445.38,129.37 445.37,137.28C445.37,150.12 445.34,162.95 445.3,175.79C445.26,188.25 445.24,200.71 445.22,213.17C445.22,213.94 445.22,214.71 445.22,215.5C445.21,219.36 445.21,223.22 445.2,227.09C445.16,259.06 445.09,291.03 445,323C441.3,321.25 438.5,319.04 435.38,316.38C434.3,315.46 433.22,314.55 432.14,313.64C431.6,313.19 431.07,312.74 430.52,312.28C427.65,309.87 424.72,307.55 421.79,305.22C419.57,303.45 417.37,301.67 415.18,299.87C414.18,299.05 414.18,299.05 413.15,298.22C411.82,297.13 410.5,296.04 409.18,294.95C408.56,294.45 407.95,293.95 407.32,293.44C406.78,292.99 406.23,292.55 405.67,292.09C403.74,290.83 402.28,290.28 400,290C397.83,291.33 396.01,292.64 394.06,294.25C393.5,294.7 392.93,295.15 392.35,295.62C387.17,299.77 382.12,304.08 377.08,308.39C373.51,311.44 369.84,314.36 366.16,317.27C364.24,318.81 362.36,320.39 360.5,322C358,324 358,324 356,324C355.67,248.76 355.34,173.52 355,96C346.58,116.79 346.58,116.79 338,138C333.34,149.4 328.67,160.8 323.97,172.19C322.28,176.3 320.62,180.42 318.96,184.54C317.63,187.83 316.29,191.12 314.95,194.4C314.33,195.94 313.71,197.48 313.1,199.02C309.41,208.29 305.4,216.21 299,224C298.44,224.68 297.88,225.37 297.31,226.07C288.62,236.26 274.55,239.55 261.85,240.79C256.74,241.17 251.64,241.18 246.52,241.2C244.76,241.21 244.76,241.21 242.97,241.22C240.5,241.23 238.04,241.24 235.57,241.24C231.84,241.25 228.11,241.28 224.38,241.31C205.04,241.4 187.42,240.98 172,228C171.41,227.54 170.83,227.09 170.23,226.62C166.18,223.12 163.75,219 161.4,214.26C161.06,213.57 160.71,212.88 160.36,212.17C155.4,201.93 151.32,191.31 147.13,180.75C145.74,177.3 144.36,173.85 142.98,170.39C142.04,168.05 141.1,165.71 140.16,163.37C135.14,150.82 130.01,138.32 124.87,125.82C124.15,124.06 123.43,122.3 122.7,120.54C122.06,118.98 121.42,117.42 120.77,115.85C118.07,109.27 115.56,102.65 113,96C112.67,171.24 112.34,246.48 112,324C108.73,322.04 106.13,320.42 103.29,318.03C102.61,317.47 101.93,316.9 101.23,316.32C100.51,315.72 99.8,315.12 99.06,314.5C94.14,310.4 89.21,306.33 84.16,302.39C82.98,301.47 81.81,300.55 80.64,299.61C78.35,297.78 76.1,296.06 73.58,294.55C71.34,293.13 70.25,292.36 69,290C68.42,284.46 68.68,279.65 69,274C59.76,274.33 50.52,274.66 41,275C40.67,283.58 40.34,292.16 40,301C43.63,301 47.26,301 51,301C46.95,305.23 42.57,308.9 38,312.56C36.95,313.41 36.95,313.41 35.88,314.27C34.53,315.36 33.18,316.45 31.82,317.53C30.25,318.8 28.72,320.1 27.19,321.4C25,323 25,323 22,323C21.93,290.9 21.88,258.79 21.85,226.69C21.84,222.9 21.84,219.1 21.84,215.3C21.83,214.55 21.83,213.79 21.83,213.01C21.82,200.8 21.8,188.59 21.77,176.38C21.74,163.83 21.72,151.29 21.72,138.75C21.71,131.01 21.7,123.28 21.68,115.55C21.66,109.61 21.66,103.67 21.66,97.72C21.66,95.3 21.65,92.87 21.64,90.44C21.55,69.25 23.03,51.61 36,34C36.42,33.41 36.83,32.81 37.26,32.2C46.14,20.6 60.83,13.95 75,12C77.69,11.9 80.36,11.84 83.05,11.84C84.23,11.83 84.23,11.83 85.43,11.82C88.01,11.81 90.59,11.8 93.17,11.8C94.06,11.79 94.95,11.79 95.86,11.79C100.55,11.77 105.24,11.76 109.94,11.76C114.76,11.75 119.59,11.73 124.42,11.7C128.15,11.68 131.88,11.68 135.61,11.68C137.38,11.67 139.16,11.67 140.94,11.65C156.38,11.55 167.23,13.15 179.09,23.89C191.31,36.55 197.16,54.07 203.46,70.1C205.07,74.17 206.69,78.23 208.32,82.29C210.67,88.14 213.01,93.98 215.34,99.83C218.86,108.66 222.4,117.49 225.93,126.32C227.43,130.07 228.93,133.82 230.43,137.57C230.93,138.83 231.43,140.09 231.94,141.34C232.29,142.22 232.64,143.1 233,144C236.16,139.25 238.18,133.97 240.44,128.75C240.71,128.12 240.99,127.48 241.27,126.83C247.81,111.74 253.93,96.48 260.02,81.22C264.01,71.24 268.1,61.31 272.36,51.45C272.77,50.5 273.18,49.54 273.61,48.56C279.84,34.25 288.41,20.81 303.01,14.07C316,9.02 332.12,10.84 345.8,10.87Z"
      fill="#D30E77"/>
  <path
      d="M83.05,11.84C84.23,11.83 84.23,11.83 85.43,11.82C88.01,11.81 90.59,11.8 93.17,11.8C94.06,11.79 94.95,11.79 95.86,11.79C100.55,11.77 105.24,11.76 109.94,11.76C114.76,11.75 119.59,11.73 124.42,11.7C128.15,11.68 131.88,11.68 135.61,11.68C137.38,11.67 139.16,11.67 140.94,11.65C163.06,11.5 163.06,11.5 172.31,18.38C173.13,18.98 173.95,19.59 174.79,20.21C177.41,22.33 179.74,24.51 182,27C181.67,27.66 181.34,28.32 181,29C180.41,28.23 180.41,28.23 179.81,27.44C178.07,25.71 178.07,25.71 175.61,26.23C171.1,27.56 168.34,30.8 165,34C164.12,34.82 163.23,35.64 162.32,36.49C142.19,55.75 134.86,81.17 131,108C130.34,108 129.68,108 129,108C129,116.58 129,125.16 129,134C126.89,130.84 125.65,127.85 124.25,124.32C123.99,123.67 123.73,123.02 123.47,122.35C122.64,120.28 121.82,118.2 121,116.13C120.45,114.74 119.9,113.35 119.34,111.96C118.33,109.4 117.31,106.84 116.3,104.27C115.2,101.51 114.1,98.76 113,96C112.67,171.24 112.34,246.48 112,324C108.73,322.04 106.13,320.42 103.29,318.03C102.61,317.47 101.93,316.9 101.23,316.32C100.51,315.72 99.8,315.12 99.06,314.5C94.14,310.4 89.21,306.33 84.16,302.39C82.98,301.47 81.81,300.55 80.64,299.61C78.35,297.78 76.1,296.06 73.58,294.55C71.34,293.13 70.25,292.36 69,290C68.42,284.46 68.68,279.65 69,274C59.76,274.33 50.52,274.66 41,275C40.67,283.58 40.34,292.16 40,301C43.63,301 47.26,301 51,301C46.95,305.23 42.57,308.9 38,312.56C36.95,313.41 36.95,313.41 35.88,314.27C34.53,315.36 33.18,316.45 31.82,317.53C30.25,318.8 28.72,320.1 27.19,321.4C25,323 25,323 22,323C21.93,290.9 21.88,258.79 21.85,226.69C21.84,222.9 21.84,219.1 21.84,215.3C21.83,214.55 21.83,213.79 21.83,213.01C21.82,200.8 21.8,188.59 21.77,176.38C21.74,163.83 21.72,151.29 21.72,138.75C21.71,131.01 21.7,123.28 21.68,115.55C21.66,109.61 21.66,103.67 21.66,97.72C21.66,95.3 21.65,92.87 21.64,90.44C21.55,69.25 23.03,51.61 36,34C36.42,33.41 36.83,32.81 37.26,32.2C47.98,18.2 65.98,11.87 83.05,11.84Z"
      fill="#DB3B37"/>
  <path
      d="M311,13C322.38,12.88 333.76,12.8 345.14,12.74C350.42,12.71 355.71,12.68 360.99,12.62C366.1,12.57 371.21,12.54 376.32,12.53C378.26,12.52 380.2,12.5 382.14,12.47C400.22,12.23 414.46,15.94 428.19,28.63C438.17,39.26 445.13,53.88 445.12,68.66C445.13,69.57 445.13,70.48 445.13,71.42C445.13,72.42 445.12,73.41 445.12,74.43C445.12,76.03 445.12,76.03 445.12,77.65C445.12,81.22 445.12,84.78 445.11,88.34C445.11,90.9 445.11,93.45 445.11,96C445.11,101.5 445.11,107 445.11,112.49C445.1,120.44 445.1,128.39 445.09,136.34C445.09,149.24 445.08,162.14 445.08,175.03C445.07,187.56 445.06,200.09 445.05,212.62C445.05,213.39 445.05,214.16 445.05,214.96C445.05,218.83 445.05,222.71 445.05,226.58C445.04,258.72 445.02,290.86 445,323C441.3,321.25 438.5,319.04 435.38,316.38C434.3,315.46 433.22,314.55 432.14,313.64C431.6,313.19 431.07,312.74 430.52,312.28C427.65,309.87 424.72,307.55 421.79,305.22C419.57,303.45 417.37,301.67 415.18,299.87C414.51,299.33 413.84,298.78 413.15,298.22C411.82,297.13 410.5,296.04 409.18,294.95C408.56,294.45 407.95,293.95 407.32,293.44C406.78,292.99 406.23,292.55 405.67,292.09C403.74,290.83 402.28,290.28 400,290C397.83,291.33 396.01,292.64 394.06,294.25C393.21,294.93 393.21,294.93 392.35,295.62C387.17,299.77 382.12,304.08 377.08,308.39C372.81,312.03 368.41,315.52 364,319C363.12,319.73 362.25,320.47 361.34,321.22C359,323 359,323 357,323C357,321.83 356.99,320.65 356.99,319.44C356.91,291.46 356.82,263.49 356.72,235.51C356.71,232.05 356.7,228.6 356.68,225.14C356.68,224.45 356.68,223.77 356.68,223.06C356.64,211.97 356.6,200.88 356.57,189.8C356.54,178.39 356.5,166.98 356.46,155.58C356.43,149.19 356.41,142.79 356.4,136.4C356.38,130.36 356.36,124.32 356.33,118.29C356.32,116.09 356.32,113.89 356.32,111.69C356.29,84.98 355.55,59.64 342,36C341.44,35.03 340.89,34.06 340.31,33.05C336.06,26.38 330.58,22.28 324,18C323.01,17.34 322.02,16.68 321,16C319.29,15.56 317.55,15.19 315.81,14.88C314.91,14.71 314.01,14.54 313.08,14.37C312.39,14.25 311.71,14.12 311,14C311,13.67 311,13.34 311,13Z"
      fill="#F84342"/>
  <path
      d="M345.8,10.87C349.16,10.87 352.52,10.87 355.88,10.86C368.62,10.86 381.29,11.16 394,12C394,12.33 394,12.66 394,13C377.87,14.25 361.73,14.12 345.56,14.07C341.88,14.06 338.2,14.05 334.52,14.05C327.34,14.04 320.17,14.02 313,14C314.26,14.13 315.52,14.27 316.83,14.41C320.72,14.82 323.03,15.91 326.19,18.31C326.99,18.91 327.78,19.5 328.61,20.11C329.4,20.74 330.19,21.36 331,22C331.83,22.61 332.67,23.23 333.52,23.86C348.83,37.09 354.45,59.26 356.09,78.54C356.17,79.54 356.26,80.54 356.35,81.57C357.23,92.71 357.31,103.83 357.32,115C357.33,117.3 357.34,119.6 357.35,121.9C357.38,128.06 357.39,134.22 357.4,140.38C357.42,146.85 357.45,153.32 357.47,159.79C357.51,170.62 357.55,181.45 357.58,192.28C357.61,203.43 357.64,214.57 357.68,225.72C357.69,226.41 357.69,227.09 357.69,227.81C357.7,231.27 357.71,234.73 357.73,238.19C357.83,266.79 357.92,295.4 358,324C357.34,324 356.68,324 356,324C355.67,248.76 355.34,173.52 355,96C349.39,109.86 343.78,123.72 338,138C333.34,149.4 328.67,160.8 323.97,172.19C322.28,176.3 320.62,180.42 318.96,184.54C317.63,187.83 316.29,191.12 314.95,194.4C314.33,195.94 313.71,197.48 313.1,199.02C308.18,211.38 302.15,222.08 292,231C291.22,231.7 290.43,232.4 289.63,233.13C285.28,234.57 281.99,232.94 278,231C261.41,221.46 252.65,200.32 246.69,182.99C245.48,179.51 244.17,176.07 242.88,172.63C242.62,171.95 242.37,171.28 242.11,170.59C240.74,166.91 239.31,163.26 237.81,159.63C237.51,158.85 237.21,158.07 236.91,157.27C236.02,154.97 236.02,154.97 234.84,152.7C233.07,148.59 232.6,146.08 234.2,141.8C234.79,140.62 235.39,139.45 236,138.23C236.66,136.9 237.31,135.55 237.97,134.21C238.31,133.52 238.64,132.83 238.99,132.11C240.62,128.69 242.09,125.21 243.54,121.71C243.84,121.01 244.13,120.3 244.43,119.58C245.36,117.37 246.27,115.15 247.19,112.94C247.84,111.36 248.5,109.78 249.16,108.2C253.03,98.85 256.84,89.46 260.57,80.05C283.13,23.24 283.13,23.24 303.01,14.07C316,9.02 332.12,10.84 345.8,10.87Z"
      fill="#CE1846"/>
  <path
      d="M345.8,10.87C349.16,10.87 352.52,10.87 355.88,10.86C368.62,10.86 381.29,11.16 394,12C394,12.33 394,12.66 394,13C377.87,14.25 361.73,14.12 345.56,14.07C341.88,14.06 338.2,14.05 334.52,14.05C327.34,14.04 320.17,14.02 313,14C314.26,14.13 315.52,14.27 316.83,14.41C320.72,14.82 323.03,15.91 326.19,18.31C326.99,18.91 327.78,19.5 328.61,20.11C329.4,20.74 330.19,21.36 331,22C331.83,22.61 332.67,23.23 333.52,23.86C348.83,37.09 354.45,59.26 356.09,78.54C356.17,79.54 356.26,80.54 356.35,81.57C357.23,92.71 357.31,103.83 357.32,115C357.33,117.3 357.34,119.6 357.35,121.9C357.38,128.06 357.39,134.22 357.4,140.38C357.42,146.85 357.45,153.32 357.47,159.79C357.51,170.62 357.55,181.45 357.58,192.28C357.61,203.43 357.64,214.57 357.68,225.72C357.69,226.41 357.69,227.09 357.69,227.81C357.7,231.27 357.71,234.73 357.73,238.19C357.83,266.79 357.92,295.4 358,324C357.34,324 356.68,324 356,324C355.67,248.76 355.34,173.52 355,96C350.05,108.21 345.1,120.42 340,133C339.67,133 339.34,133 339,133C338.97,131.85 338.95,130.69 338.92,129.5C337.98,99.22 333.29,66.79 313,43C312.31,42.18 311.62,41.36 310.91,40.52C305.74,34.55 300.57,29.18 293.38,25.75C289.97,26.11 288.59,27.83 286.35,30.32C283.24,34.2 281.17,38.55 279,43C278.34,43 277.68,43 277,43C280.02,32.31 288.56,22.46 298.07,16.76C312.73,9.11 329.72,10.84 345.8,10.87Z"
      fill="#B21832"/>
  <path
      d="M75,12C85.52,11.93 96.04,11.88 106.56,11.84C111.44,11.83 116.33,11.81 121.21,11.77C125.93,11.74 130.65,11.72 135.37,11.72C137.17,11.71 138.96,11.7 140.76,11.68C163.04,11.49 163.04,11.49 172.31,18.38C173.54,19.29 173.54,19.29 174.79,20.21C177.41,22.33 179.74,24.51 182,27C181.67,27.66 181.34,28.32 181,29C180.41,28.23 180.41,28.23 179.81,27.44C178.07,25.71 178.07,25.71 175.61,26.23C171.1,27.56 168.34,30.8 165,34C164.12,34.82 163.23,35.64 162.32,36.49C142.19,55.75 134.86,81.17 131,108C130.34,108 129.68,108 129,108C129,116.58 129,125.16 129,134C126.89,130.84 125.65,127.85 124.25,124.32C123.99,123.67 123.73,123.02 123.47,122.35C122.64,120.28 121.82,118.2 121,116.13C120.45,114.74 119.9,113.35 119.34,111.96C118.33,109.4 117.31,106.84 116.3,104.27C115.2,101.51 114.1,98.76 113,96C112.67,171.24 112.34,246.48 112,324C110.68,323.34 109.36,322.68 108,322C108.66,321.67 109.32,321.34 110,321C110,319.84 110.01,318.67 110.01,317.47C110.11,289.78 110.22,262.09 110.33,234.4C110.34,230.98 110.36,227.57 110.37,224.15C110.38,223.47 110.38,222.79 110.38,222.09C110.42,211.11 110.47,200.13 110.5,189.16C110.55,177.87 110.59,166.59 110.64,155.3C110.66,148.97 110.69,142.64 110.71,136.31C110.73,130.34 110.75,124.37 110.78,118.4C110.79,116.22 110.8,114.04 110.8,111.86C110.83,101.92 110.91,91.99 111.44,82.06C111.48,81.36 111.52,80.66 111.56,79.93C112.78,59.8 119.68,37.05 135,23C144.74,15.75 144.74,15.75 150,14C125.25,13.67 100.5,13.34 75,13C75,12.67 75,12.34 75,12Z"
      fill="#8D0732"/>
  <path
      d="M245,118C248.01,121.01 247.99,124.76 248.69,128.81C251.79,145.39 257.34,161 265,176C265.58,177.14 266.15,178.28 266.75,179.46C275.04,195.36 285.87,210.44 302,219C299.03,224.76 293.29,231.9 287,234C277.14,232.61 269.94,225.76 264.14,218.15C256.66,207.15 251.01,195.55 246.69,182.99C245.48,179.51 244.17,176.07 242.88,172.63C242.62,171.95 242.37,171.28 242.11,170.59C240.74,166.91 239.31,163.26 237.81,159.63C237.51,158.85 237.21,158.07 236.91,157.27C236.02,154.97 236.02,154.97 234.84,152.7C232.98,148.38 232.66,146 234.2,141.46C235.66,138.19 237.33,135.03 239.03,131.88C240.51,129.01 241.72,126.05 242.94,123.06C243.34,122.08 243.74,121.11 244.15,120.1C244.43,119.41 244.71,118.71 245,118Z"
      fill="#910237"/>
  <path
      d="M40,117C49.9,117 59.8,117 70,117C70,125.91 70,134.82 70,144C60.1,144 50.2,144 40,144C40,135.09 40,126.18 40,117Z"
      fill="#0B2130"/>
  <path
      d="M40,222C49.57,222 59.14,222 69,222C69,230.58 69,239.16 69,248C59.43,248 49.86,248 40,248C40,239.42 40,230.84 40,222Z"
      fill="#041F30"/>
  <path
      d="M40,170C49.57,170 59.14,170 69,170C69,178.58 69,187.16 69,196C59.43,196 49.86,196 40,196C40,187.42 40,178.84 40,170Z"
      fill="#041F30"/>
  <path
      d="M40,65C49.57,65 59.14,65 69,65C69,73.58 69,82.16 69,91C59.43,91 49.86,91 40,91C40,82.42 40,73.84 40,65Z"
      fill="#051F2F"/>
  <path
      d="M80,13C104.75,13 129.5,13 155,13C155,13.33 155,13.66 155,14C154.42,14.11 153.83,14.22 153.23,14.34C142.03,17.04 133.25,24.25 126.88,33.72C113.19,57.62 112.04,82.04 111.75,108.96C111.75,109.73 111.74,110.49 111.73,111.28C111.65,118.47 111.58,125.66 111.52,132.86C111.49,136.82 111.45,140.79 111.4,144.76C111.39,146.27 111.37,147.77 111.37,149.27C111.35,151.35 111.33,153.44 111.3,155.52C111.29,156.7 111.28,157.88 111.27,159.1C111,162 111,162 109,165C108.93,153.85 108.88,142.71 108.84,131.56C108.83,126.39 108.81,121.21 108.77,116.03C108.74,111.02 108.72,106.01 108.72,100.99C108.71,99.1 108.7,97.2 108.68,95.31C108.48,70.28 111,43.14 129.34,24.33C131.52,22.18 133.75,20.08 136,18C137,17 138,16 139,15C137.96,15.01 137.96,15.01 136.89,15.01C130.35,15.05 123.8,15.08 117.25,15.1C113.88,15.11 110.52,15.13 107.15,15.15C103.28,15.18 99.41,15.19 95.54,15.2C94.33,15.21 93.12,15.22 91.88,15.23C90.2,15.23 90.2,15.23 88.48,15.23C87.49,15.23 86.5,15.24 85.49,15.24C83,15 83,15 80,13Z"
      fill="#F17747"/>
  <path
      d="M70.42,23.71C71.67,23.72 72.93,23.73 74.22,23.74C75.53,23.76 76.84,23.79 78.19,23.81C79.52,23.83 80.86,23.84 82.19,23.85C85.46,23.89 88.73,23.94 92,24C92,24.66 92,25.32 92,26C91.15,26.64 90.31,27.28 89.44,27.94C86.19,30.41 84.99,33.01 83.22,36.65C80.95,40.3 79.91,41.75 75.72,42.9C71.8,43.08 67.97,42.96 64.06,42.69C62.7,42.63 61.33,42.58 59.97,42.54C56.64,42.41 53.32,42.23 50,42C51.56,37.81 53.37,35.16 56.44,31.88C57.22,31.03 58,30.18 58.81,29.3C59.89,28.16 59.89,28.16 61,27C61.41,26.46 61.82,25.93 62.24,25.37C64.9,23.3 67.09,23.66 70.42,23.71Z"
      fill="#092130"/>
  <path
      d="M311,13C331.13,13 351.26,13 372,13C372,13.33 372,13.66 372,14C356.82,14 341.64,14 326,14C326,14.66 326,15.32 326,16C326.66,16.19 327.32,16.37 328,16.56C338,21.35 344.91,30.79 349.25,40.69C349.92,42.17 350.59,43.65 351.27,45.14C351.55,45.78 351.84,46.43 352.13,47.1C352.73,48.42 353.37,49.72 354.04,51C357.7,58.65 357.86,68.21 358.69,76.5C358.79,77.51 358.79,77.51 358.89,78.54C360.35,93.56 360.91,109.11 358,124C357.67,124 357.34,124 357,124C356.97,122.68 356.97,122.68 356.94,121.34C356.7,77.06 356.7,77.06 342,36C341.44,35.03 340.89,34.06 340.31,33.05C336.06,26.38 330.58,22.28 324,18C323.01,17.34 322.02,16.68 321,16C319.29,15.56 317.55,15.19 315.81,14.88C314.91,14.71 314.01,14.54 313.08,14.37C312.39,14.25 311.71,14.12 311,14C311,13.67 311,13.34 311,13Z"
      fill="#F83883"/>
  <path
      d="M230,142C233.76,146.12 235.32,150.06 237,155.25C237.52,156.78 238.04,158.31 238.56,159.84C238.93,160.93 238.93,160.93 239.31,162.04C240.37,165.04 241.67,167.9 243.01,170.78C244.26,173.58 245.35,176.44 246.44,179.31C247.29,181.54 248.14,183.77 249,186C249.55,187.44 249.55,187.44 250.11,188.9C256.47,204.83 264.2,222.6 280,231C281.66,231.69 283.32,232.36 285,233C285,233.66 285,234.32 285,235C275.64,233.74 268.49,228.09 262.48,221.04C252.43,207.14 246.87,190.88 240.73,175.01C239.04,170.64 237.31,166.29 235.52,161.96C235.14,161.05 234.77,160.14 234.38,159.2C233.69,157.54 232.99,155.87 232.29,154.22C230.54,149.97 229.61,146.69 230,142Z"
      fill="#E81BA0"/>
  <path
      d="M357,179C357.33,179 357.66,179 358,179C358.94,195.29 359.21,211.55 359.32,227.86C359.34,230.48 359.36,233.09 359.38,235.71C359.43,241.83 359.47,247.95 359.52,254.07C359.57,261.05 359.62,268.03 359.68,275.01C359.79,289.34 359.9,303.67 360,318C360.99,318 361.98,318 363,318C363,318.66 363,319.32 363,320C359.54,323 359.54,323 357,323C357,275.48 357,227.96 357,179Z"
      fill="#F57A3D"/>
  <path
      d="M112,58C113.51,59.34 113.51,59.34 115,61C114.89,63.5 114.89,63.5 114.25,66.56C111.7,80.54 111.91,94.8 111.75,108.96C111.75,109.73 111.74,110.49 111.73,111.28C111.65,118.47 111.58,125.66 111.52,132.86C111.49,136.82 111.45,140.79 111.4,144.76C111.39,146.27 111.37,147.77 111.37,149.27C111.35,151.35 111.33,153.44 111.3,155.52C111.29,156.7 111.28,157.88 111.27,159.1C111,162 111,162 109,165C108.93,153.85 108.88,142.71 108.84,131.56C108.83,126.39 108.81,121.21 108.77,116.03C108.74,111.02 108.72,106.01 108.72,100.99C108.71,99.1 108.7,97.2 108.68,95.31C108.58,82.57 109.63,70.52 112,58Z"
      fill="#ED5C52"/>
  <path
      d="M311,13C331.13,13 351.26,13 372,13C372,13.33 372,13.66 372,14C356.82,14 341.64,14 326,14C326,14.66 326,15.32 326,16C326.66,16.19 327.32,16.37 328,16.56C333.86,19.37 338.53,24.35 343,29C342.34,30.32 341.68,31.64 341,33C336,28 336,28 333.81,25.63C326.85,19.13 320.6,15 311,14C311,13.67 311,13.34 311,13Z"
      fill="#F6277D"/>
  <path
      d="M80,13C104.75,13 129.5,13 155,13C155,13.33 155,13.66 155,14C154.42,14.11 153.83,14.22 153.23,14.34C145.05,16.31 139.4,20.75 133,26C132.34,25.01 131.68,24.02 131,23C131.58,22.51 132.15,22.01 132.75,21.5C133.49,20.86 134.24,20.22 135,19.56C136.11,18.61 136.11,18.61 137.25,17.63C137.83,17.09 138.4,16.55 139,16C139,15.67 139,15.34 139,15C137.96,15.01 137.96,15.01 136.89,15.01C130.35,15.05 123.8,15.08 117.25,15.1C113.88,15.11 110.52,15.13 107.15,15.15C103.28,15.18 99.41,15.19 95.54,15.2C94.33,15.21 93.12,15.22 91.88,15.23C90.2,15.23 90.2,15.23 88.48,15.23C87.49,15.23 86.5,15.24 85.49,15.24C83,15 83,15 80,13Z"
      fill="#F88035"/>
  <path
      d="M250,194C254.03,197.47 255.94,201.45 258.25,206.13C264.63,218.51 271.6,227.93 285,233C285,233.66 285,234.32 285,235C275.61,233.74 268.4,228.07 262.44,220.94C249.39,202.63 249.39,202.63 250,194Z"
      fill="#F116A9"/>
  <path
      d="M444,231C444.33,231 444.66,231 445,231C445,261.36 445,291.72 445,323C441,321 441,321 440,319C440.99,319 441.98,319 443,319C443,317.93 443,316.85 442.99,315.75C442.97,305.65 442.96,295.56 442.95,285.46C442.94,280.27 442.94,275.08 442.92,269.89C442.91,264.89 442.91,259.88 442.91,254.88C442.9,252.96 442.9,251.05 442.89,249.14C442.89,246.47 442.89,243.79 442.89,241.12C442.88,240.32 442.88,239.53 442.88,238.71C442.89,233.23 442.89,233.23 444,231Z"
      fill="#DB6722"/>
  <path
      d="M356,72C358.35,75.53 358.73,78.52 359.19,82.63C359.27,83.4 359.36,84.17 359.45,84.96C360.65,97.63 360.52,111.5 358,124C357.67,124 357.34,124 357,124C355.81,88.52 355.81,88.52 356,72Z"
      fill="#F6406E"/>
  <path
      d="M358,265C358.33,265 358.66,265 359,265C359.33,282.49 359.66,299.98 360,318C360.99,318 361.98,318 363,318C363,318.66 363,319.32 363,320C359.54,323 359.54,323 357,323C356.87,303.63 357.15,284.35 358,265Z"
      fill="#F1861F"/>
  <path
      d="M93,23C93.33,23.99 93.66,24.98 94,26C90.2,29.92 86.18,33.49 82,37C83.35,34.06 84.9,31.71 87,29.25C87.77,28.33 87.77,28.33 88.56,27.39C90,26 90,26 92,26C92,25.34 92,24.68 92,24C82.76,24 73.52,24 64,24C64,23.67 64,23.34 64,23C67.52,22.8 71.04,22.62 74.56,22.44C75.55,22.38 76.54,22.33 77.56,22.27C82.88,22 87.76,22.01 93,23Z"
      fill="#DE691C"/>
  <path
      d="M396,13C406.76,13.73 416.87,19.1 425,26C426.78,28.21 426.78,28.21 428,30C424.76,29.41 423.07,28.44 420.69,26.19C414.52,20.73 408.39,18.3 400.57,15.93C398,15 398,15 396,13Z"
      fill="#A60D5A"/>
  <path
      d="M354,55C354.66,55.33 355.32,55.66 356,56C356.51,58.46 356.89,60.83 357.19,63.31C357.28,63.99 357.38,64.67 357.47,65.37C358.31,71.92 358.31,71.92 357,75C356.34,75.33 355.68,75.66 355,76C353.5,68.65 352.76,62.42 354,55Z"
      fill="#F72D79"/>
  <path
      d="M47,23C47.66,23.33 48.32,23.66 49,24C44.67,29.18 40.23,33.73 35,38C36.22,31.38 41.78,26.84 47,23Z"
      fill="#C35C1E"/>
  <path
      d="M287,26C287.33,26.99 287.66,27.98 288,29C287.35,29.59 287.35,29.59 286.69,30.19C283.24,33.89 281.2,38.49 279,43C278.34,43 277.68,43 277,43C278.32,38.32 280.2,35 283.13,31.13C283.85,30.16 284.57,29.19 285.32,28.2C285.87,27.47 286.43,26.75 287,26Z"
      fill="#A62931"/>
  <path
      d="M223,121C224.79,123.69 225.97,126.09 227.19,129.06C227.55,129.94 227.92,130.82 228.29,131.72C229,134 229,134 228,136C227.67,135.01 227.34,134.02 227,133C226.34,133 225.68,133 225,133C223,128.88 222.82,125.55 223,121Z"
      fill="#AC1A74"/>
  <path
      d="M414,21C420.39,21.16 423.66,24.78 428,29C427.01,29.33 426.02,29.66 425,30C423.06,28.64 423.06,28.64 421,26.69C418.7,24.54 416.63,22.75 414,21Z"
      fill="#C20A67"/>
  <path
      d="M112,58C112.99,58.99 113.98,59.98 115,61C113.91,65.38 112.83,68.5 110,72C110.14,70.42 110.29,68.83 110.44,67.25C110.52,66.37 110.6,65.49 110.68,64.58C110.96,62.31 111.39,60.2 112,58Z"
      fill="#F36642"/>
  <path
      d="M93,26C93,28 93,28 91.36,29.66C90.64,30.26 89.92,30.87 89.19,31.5C88.13,32.41 88.13,32.41 87.04,33.34C85,35 85,35 82,37C83.35,34.09 84.87,31.71 86.94,29.25C87.44,28.64 87.95,28.02 88.46,27.39C90,26 90,26 93,26Z"
      fill="#D05F20"/>
  <path
      d="M295.25,20.25C296.12,20.62 296.12,20.62 297,21C294.97,24.04 293.37,25.59 290,27C289.01,27.49 289.01,27.49 288,28C288.58,23.91 290.63,19.74 295.25,20.25Z"
      fill="#BA252E"/>
  <path
      d="M205,77C207.25,79.25 208.01,81.06 209.19,84C209.55,84.89 209.92,85.77 210.29,86.69C211,89 211,89 210,91C208,90 208,90 207.15,88.07C206.89,87.29 206.64,86.5 206.38,85.69C205.98,84.52 205.98,84.52 205.59,83.32C205,81 205,81 205,77Z"
      fill="#9C1A5B"/>
  <path
      d="M318,15C321.36,15.6 323.38,16.85 326,19C325.34,19 324.68,19 324,19C323.67,20.32 323.34,21.64 323,23C322.16,21.86 321.33,20.71 320.5,19.56C320.04,18.92 319.57,18.29 319.09,17.63C318,16 318,16 318,15Z"
      fill="#CB1933"/>
  <path
      d="M444,308C444.33,308 444.66,308 445,308C445,312.95 445,317.9 445,323C441,321 441,321 440,319C440.99,319 441.98,319 443,319C443.33,315.37 443.66,311.74 444,308Z"
      fill="#C66B14"/>
  <path
      d="M61,24C61.66,24.66 62.32,25.32 63,26C60.36,28.64 57.72,31.28 55,34C54.34,33.34 53.68,32.68 53,32C54.29,30.62 55.63,29.29 57,28C57.66,28 58.32,28 59,28C59,27.34 59,26.68 59,26C59.66,26 60.32,26 61,26C61,25.34 61,24.68 61,24Z"
      fill="#E36C1D"/>
  <path
      d="M248,186C250.69,188.69 251.06,191.38 252,195C251.01,195.33 250.02,195.66 249,196C246.88,189.38 246.88,189.38 248,186Z"
      fill="#E6159F"/>
  <path
      d="M126,28C126,30.84 125.6,33.24 125,36C123.68,36.33 122.36,36.66 121,37C122.25,33.54 123.68,30.85 126,28Z"
      fill="#F87B38"/>
  <path
      d="M229,136C231.19,139.28 232,142.21 233,146C231.68,145.67 230.36,145.34 229,145C228.16,141.62 227.89,139.33 229,136Z"
      fill="#B01A7C"/>
  <path
      d="M215,101C217.19,104.28 218,107.21 219,111C218.01,111 217.02,111 216,111C215.38,107.56 215,104.51 215,101Z"
      fill="#9B1C67"/>
  <path
      d="M283,234C283,234.66 283,235.32 283,236C278.38,238.13 278.38,238.13 275,237C275.66,237 276.32,237 277,237C277,236.34 277,235.68 277,235C279,234 279,234 283,234Z"
      fill="#BB0B80"/>
  <path
      d="M326,17C328.48,17.5 328.48,17.5 331,18C331.33,18.99 331.66,19.98 332,21C330.35,20.67 328.7,20.34 327,20C326.67,19.01 326.34,18.02 326,17Z"
      fill="#F73C85"/>
</svg>
